# xmcd CD database file
#
# Track frame offsets:
#	150
#	17050
#	30572
#	51125
#	65050
#	78050
#	107100
#	114675
#	132125
#	149025
#	166250
#	181962
#	208775
#
# Disc length: 3018 seconds
#
# Revision: 0
# Processed by: cddbd v1.5.1PL0 Copyright (c) Steve Scherf et al.
# Submitted via: CDex 1.51
#
DISCID=b60bc80d
DTITLE=沢田研二 - Julie IV　今　僕は倖せです
DYEAR=1972
DGENRE=Pop
TTITLE0=今、僕は倖せです
TTITLE1=被害妄想
TTITLE2=不良時代
TTITLE3=湯屋さん
TTITLE4=悲しくなると
TTITLE5=古い巣
TTITLE6=涙
TTITLE7=怒りの捨て場
TTITLE8=一人ベッドで
TTITLE9=誕生日
TTITLE10=ラヴ・ソング
TTITLE11=気がかりな奴
TTITLE12=お前なら
EXTD=YEAR: 1972
EXTT0=
EXTT1=
EXTT2=
EXTT3=
EXTT4=
EXTT5=
EXTT6=
EXTT7=
EXTT8=
EXTT9=
EXTT10=
EXTT11=
EXTT12=
PLAYORDER=
